# xmcd
#
# Track frame offsets:
#	150
#	18464
#	34300
#	52504
#	67966
#	85445
#	99471
#	117937
#	136329
#	152131
#	169397
#	183554
#
# Disc length: 2666 seconds
#
# Revision: 0
# Processed by: cddbd v1.5.2PL0 Copyright (c) Steve Scherf et al.
# Submitted via: EZCDAudioConverter 7.1.5.1
#
DISCID=9c0a680c
DTITLE=吉馬大對唱 - 吉馬大對唱 10 CD 典藏版
DYEAR=20110616
DGENRE=
TTITLE0=風飛沙
TTITLE1=浪子的心情
TTITLE2=酒國英雄
TTITLE3=等無人
TTITLE4=一定要成功
TTITLE5=歌聲戀情
TTITLE6=愛情一陣風
TTITLE7=溫泉鄉的吉他
TTITLE8=心情無人知
TTITLE9=你會後悔
TTITLE10=愛情一斤值外多
TTITLE11=媽媽請保重
EXTD=
EXTT0=
EXTT1=
EXTT2=
EXTT3=
EXTT4=
EXTT5=
EXTT6=
EXTT7=
EXTT8=
EXTT9=
EXTT10=
EXTT11=
PLAYORDER=
